# xmcd
#
# Track frame offsets:
#	300
#	17342
#	25902
#	41575
#	54807
#	68417
#	83160
#	105577
#	125525
#	142200
#	153062
#	162987
#	177232
#
# Disc length: 2593 seconds
#
# Revision: 0
# Processed by: cddbd v1.5.2PL0 Copyright (c) Steve Scherf et al.
# Submitted via: audiograbber 1.83.01
#
DISCID=9a0a1d0d
DTITLE=Dévényi Ádám - Mindennapi éjek
DYEAR=1994
DGENRE=Blues
TTITLE0=Belemenekülök az éjszakába
TTITLE1=Várni nem érdemes
TTITLE2=Nagyságos asszonyom
TTITLE3=Keményítsd meg
TTITLE4=Pest és Buda
TTITLE5=Alvajáró
TTITLE6=Dr. Képes
TTITLE7=Melegebbek a hajnalok
TTITLE8=A szoba
TTITLE9=Kivilágos virradatig
TTITLE10=Körhinta
TTITLE11=Az üzlet
TTITLE12=Koldusdal
EXTD=
EXTT0=
EXTT1=
EXTT2=
EXTT3=
EXTT4=
EXTT5=
EXTT6=
EXTT7=
EXTT8=
EXTT9=
EXTT10=
EXTT11=
EXTT12=
PLAYORDER=
